<svg width="66" height="15" viewBox="0 0 66 15" fill="none" xmlns="http://www.w3.org/2000/svg">
<path d="M0.707642 14.0635V0.138641H2.89216V12.188H10.3709V14.1406L0.707642 14.0635Z" fill="white"/>
<path d="M19.289 14.1662C18.396 14.1627 17.5162 13.9516 16.7189 13.5496C15.9323 13.1634 15.2259 12.6316 14.6372 11.9824C14.0458 11.3154 13.5917 10.5385 13.3008 9.6959C12.9766 8.8782 12.8109 8.00633 12.8125 7.12674C12.8268 6.2463 13.001 5.37578 13.3265 4.55758C13.6521 3.72802 14.1219 2.96259 14.7143 2.29671C15.2987 1.64952 16.0064 1.12548 16.796 0.755233C17.5998 0.374581 18.4767 0.172977 19.3661 0.164337C20.259 0.167842 21.1388 0.378913 21.9361 0.78091C22.7333 1.17262 23.4418 1.72348 24.0178 2.39949C24.5894 3.07114 25.0414 3.83587 25.3542 4.66037C25.6534 5.48423 25.8099 6.35307 25.8168 7.22953C25.8142 8.10871 25.6486 8.9798 25.3285 9.79869C25.0151 10.6342 24.544 11.4018 23.9407 12.0595C23.351 12.7008 22.6445 13.224 21.859 13.601C21.0532 13.9728 20.1764 14.1657 19.289 14.1662ZM14.9456 7.04967C14.9456 7.69584 15.0497 8.33782 15.254 8.95086C15.4406 9.54061 15.7371 10.0898 16.1278 10.5694C16.5005 11.0347 16.9639 11.4193 17.49 11.6998C18.0537 11.9915 18.68 12.1414 19.3147 12.1366C19.953 12.1458 20.5825 11.9863 21.1394 11.6742C21.6756 11.3976 22.1416 11.0022 22.5015 10.518C22.882 10.0317 23.1775 9.48441 23.3753 8.89946C23.5569 8.29941 23.6521 7.67655 23.658 7.04967C23.6623 6.40316 23.558 5.7605 23.3496 5.14847C23.1522 4.56333 22.8567 4.01603 22.4758 3.52993C22.0927 3.06495 21.6209 2.68069 21.088 2.39949C20.5353 2.13092 19.9292 1.99041 19.3147 1.98842C18.6714 1.9805 18.036 2.13046 17.4643 2.42517C16.939 2.71784 16.4762 3.11062 16.1021 3.58128C15.7104 4.05627 15.4215 4.60745 15.254 5.19987C15.0521 5.7958 14.9479 6.42047 14.9456 7.04967Z" fill="white"/>
<path d="M39.7721 12.3421C39.2747 12.9102 38.6625 13.3665 37.9759 13.6809C37.2892 13.9953 36.5437 14.1608 35.7885 14.1663C34.8943 14.1736 34.0119 13.9619 33.2185 13.5496C32.4355 13.1695 31.7365 12.6367 31.1625 11.9825C30.5701 11.3069 30.1005 10.5331 29.7747 9.6959C29.4568 8.87637 29.2913 8.0057 29.2864 7.12674C29.2772 6.20477 29.4429 5.2894 29.7747 4.42912C30.0943 3.60432 30.565 2.84632 31.1625 2.19396C31.7319 1.54792 32.4329 1.0311 33.2185 0.678166C34.0258 0.310914 34.9016 0.1183 35.7885 0.112947C36.9438 0.0736357 38.0859 0.367994 39.0782 0.960775C39.9598 1.47896 40.6667 2.24825 41.1085 3.17025L39.4123 4.37776C39.0759 3.66677 38.5402 3.06872 37.8703 2.65639C37.2117 2.28434 36.4679 2.08962 35.7114 2.09121C35.1094 2.08612 34.5163 2.23656 33.9895 2.52796C33.4654 2.80038 33.0021 3.17618 32.6274 3.63268C32.2547 4.12008 31.9679 4.66746 31.7793 5.25127C31.5731 5.8727 31.4689 6.52341 31.4709 7.17814C31.4628 7.85224 31.576 8.52232 31.805 9.1564C32.0121 9.7478 32.3257 10.2963 32.7302 10.7749C33.1301 11.2194 33.6095 11.5853 34.1437 11.854C34.6861 12.1257 35.2847 12.2665 35.8913 12.2651C36.6424 12.2325 37.376 12.028 38.0355 11.6671C38.695 11.3063 39.2627 10.7989 39.695 10.184V8.71961H36.8423V7.04967H41.5968V14.0892H39.7721V12.3421Z" fill="white"/>
<path d="M46.12 14.0635V0.164337H48.3045V14.0635H46.12Z" fill="white"/>
<path d="M55.6034 4.24931V14.0635H53.4188V0.138641H55.1408L63.1078 10.1841V0.164358H65.2923V14.0635H63.4933L55.6034 4.24931Z" fill="white"/>
</svg>
