<svg width="21" height="25" viewBox="0 0 21 25" fill="none" xmlns="http://www.w3.org/2000/svg">
<path d="M17.9353 8.89819H16.4704V7.07406C16.4704 5.45919 15.8286 3.91045 14.6864 2.76856C13.5441 1.62667 11.9948 0.985168 10.3794 0.985168C8.76399 0.985168 7.21473 1.62667 6.07245 2.76856C4.93018 3.91045 4.28845 5.45919 4.28845 7.07406V8.89819H2.82354C2.27143 8.89819 1.74194 9.11744 1.35154 9.5077C0.961145 9.89797 0.741821 10.4273 0.741821 10.9792V22.9001C0.741821 23.452 0.961145 23.9813 1.35154 24.3716C1.74194 24.7619 2.27143 24.9811 2.82354 24.9811H17.9353C18.4898 24.9812 19.022 24.7627 19.4164 24.3732C19.8109 23.9836 20.0359 23.4544 20.0427 22.9001V11.0306C20.0461 10.7518 19.9941 10.475 19.8897 10.2165C19.7853 9.95791 19.6306 9.72262 19.4346 9.52427C19.2386 9.32591 19.0051 9.16845 18.7477 9.06097C18.4904 8.9535 18.2142 8.89816 17.9353 8.89819ZM7.03838 7.07406C7.03838 6.18827 7.39038 5.33876 8.01695 4.7124C8.64351 4.08605 9.49332 3.73417 10.3794 3.73417C11.2655 3.73417 12.1153 4.08605 12.7419 4.7124C13.3684 5.33876 13.7204 6.18827 13.7204 7.07406V8.89819H7.03838V7.07406ZM11.5102 19.4317V22.4633C11.5045 22.5227 11.4783 22.5783 11.4361 22.6205C11.3939 22.6627 11.3383 22.6889 11.2789 22.6946H9.814C9.75459 22.6889 9.69901 22.6627 9.6568 22.6205C9.6146 22.5783 9.5884 22.5227 9.5827 22.4633V19.4317C9.02981 19.2082 8.57191 18.7993 8.28749 18.2752C8.00307 17.7512 7.90983 17.1445 8.02376 16.5593C8.13769 15.9741 8.45168 15.4467 8.91194 15.0675C9.37219 14.6883 9.95004 14.4809 10.5465 14.4809C11.1429 14.4809 11.7207 14.6883 12.181 15.0675C12.6412 15.4467 12.9552 15.9741 13.0692 16.5593C13.1831 17.1445 13.0899 17.7512 12.8054 18.2752C12.521 18.7993 12.0631 19.2082 11.5102 19.4317Z" fill="#F0EFF4"/>
</svg>
