<?xml version="1.0" encoding="UTF-8"?>
<svg xmlns="http://www.w3.org/2000/svg" xmlns:xlink="http://www.w3.org/1999/xlink" width="50px" height="50px" viewBox="0 0 50 49" version="1.1">
<g id="surface1">
<path style=" stroke:none;fill-rule:nonzero;fill:rgb(28.627451%,76.470588%,87.843137%);fill-opacity:1;" d="M 7.644531 28.9375 L 1.195312 28.9375 C 0.480469 28.9375 -0.0976562 29.507812 -0.0976562 30.207031 L -0.0976562 49.039062 L 8.9375 49.039062 L 8.9375 30.207031 C 8.9375 29.507812 8.359375 28.9375 7.644531 28.9375 Z M 7.644531 28.9375 "/>
<path style=" stroke:none;fill-rule:nonzero;fill:rgb(0%,64.705882%,77.647059%);fill-opacity:1;" d="M 4.210938 28.9375 L 1.195312 28.9375 C 0.480469 28.9375 -0.0976562 29.507812 -0.0976562 30.207031 L -0.0976562 49.039062 L 2.921875 49.039062 L 2.921875 30.207031 C 2.921875 29.507812 3.5 28.9375 4.210938 28.9375 Z M 4.210938 28.9375 "/>
<path style=" stroke:none;fill-rule:nonzero;fill:rgb(22.745098%,78.039216%,70.588235%);fill-opacity:1;" d="M 21.300781 23.972656 L 14.847656 23.972656 C 14.136719 23.972656 13.558594 24.539062 13.558594 25.238281 L 13.558594 49.039062 L 22.59375 49.039062 L 22.59375 25.238281 C 22.59375 24.539062 22.015625 23.972656 21.300781 23.972656 Z M 21.300781 23.972656 "/>
<path style=" stroke:none;fill-rule:nonzero;fill:rgb(0%,67.843137%,58.039216%);fill-opacity:1;" d="M 17.867188 23.972656 L 14.847656 23.972656 C 14.136719 23.972656 13.558594 24.539062 13.558594 25.238281 L 13.558594 49.039062 L 16.574219 49.039062 L 16.574219 25.238281 C 16.574219 24.539062 17.152344 23.972656 17.867188 23.972656 Z M 17.867188 23.972656 "/>
<path style=" stroke:none;fill-rule:nonzero;fill:rgb(100%,80.392157%,21.960784%);fill-opacity:1;" d="M 34.957031 19.003906 L 28.503906 19.003906 C 27.789062 19.003906 27.210938 19.570312 27.210938 20.269531 L 27.210938 49.039062 L 36.246094 49.039062 L 36.246094 20.269531 C 36.246094 19.570312 35.667969 19.003906 34.957031 19.003906 Z M 34.957031 19.003906 "/>
<path style=" stroke:none;fill-rule:nonzero;fill:rgb(90.588235%,72.156863%,20.784314%);fill-opacity:1;" d="M 31.523438 19.003906 L 28.503906 19.003906 C 27.789062 19.003906 27.210938 19.570312 27.210938 20.269531 L 27.210938 49.039062 L 30.230469 49.039062 L 30.230469 20.269531 C 30.230469 19.570312 30.808594 19.003906 31.523438 19.003906 Z M 31.523438 19.003906 "/>
<path style=" stroke:none;fill-rule:nonzero;fill:rgb(100%,54.901961%,34.117647%);fill-opacity:1;" d="M 48.609375 14.035156 L 42.160156 14.035156 C 41.445312 14.035156 40.867188 14.601562 40.867188 15.304688 L 40.867188 49.039062 L 49.902344 49.039062 L 49.902344 15.304688 C 49.902344 14.601562 49.324219 14.035156 48.609375 14.035156 Z M 48.609375 14.035156 "/>
<path style=" stroke:none;fill-rule:nonzero;fill:rgb(92.54902%,41.568627%,20.392157%);fill-opacity:1;" d="M 45.175781 14.035156 L 42.160156 14.035156 C 41.445312 14.035156 40.867188 14.601562 40.867188 15.304688 L 40.867188 49.039062 L 43.882812 49.039062 L 43.882812 15.304688 C 43.882812 14.601562 44.464844 14.035156 45.175781 14.035156 Z M 45.175781 14.035156 "/>
<path style=" stroke:none;fill-rule:nonzero;fill:rgb(85.490196%,35.686275%,39.607843%);fill-opacity:1;" d="M 47.578125 0.429688 L 39.414062 0.144531 C 38.742188 0.121094 38.328125 0.863281 38.714844 1.410156 L 40.03125 3.269531 C 35.597656 5.878906 21.410156 13.210938 2.082031 13.210938 L 2.082031 18.535156 C 15.179688 18.535156 26 15.347656 32.769531 12.675781 C 37.722656 10.722656 41.273438 8.765625 43.128906 7.652344 L 44.296875 9.304688 C 44.683594 9.847656 45.535156 9.726562 45.75 9.097656 L 48.328125 1.488281 C 48.5 0.976562 48.125 0.445312 47.578125 0.429688 Z M 47.578125 0.429688 "/>
</g>
</svg>
